<?xml version="1.0" encoding="utf-8"?>
<!-- Generator: Adobe Illustrator 21.0.2, SVG Export Plug-In . SVG Version: 6.00 Build 0)  -->
<svg version="1.1" id="Vrstva_1" xmlns="http://www.w3.org/2000/svg" xmlns:xlink="http://www.w3.org/1999/xlink" x="0px" y="0px"
	 viewBox="0 0 48 48" style="enable-background:new 0 0 48 48;" xml:space="preserve">
<style type="text/css">
	.st0{fill-rule:evenodd;clip-rule:evenodd;fill:#B1B1B1;}
</style>
<path class="st0" d="M24,19c2.7,0,5,2.2,5,5s-2.2,5-5,5s-5-2.2-5-5S21.3,19,24,19z M24,31.7c4.2,0,7.7-3.4,7.7-7.7s-3.4-7.7-7.7-7.7
	s-7.7,3.4-7.7,7.7S19.8,31.7,24,31.7z M14.2,32c0-1,0.8-1.8,1.8-1.8c1,0,1.8,0.8,1.8,1.8c0,1-0.8,1.8-1.8,1.8
	C15,33.8,14.2,33,14.2,32z M24,36.2c-4,0-4.5,0-6-0.1c-1.5-0.1-2.2-0.3-2.8-0.5c-0.7-0.3-1.2-0.6-1.7-1.1c-0.5-0.5-0.8-1-1.1-1.7
	c-0.2-0.5-0.4-1.3-0.5-2.8c-0.1-1.6-0.1-2-0.1-6s0-4.5,0.1-6c0.1-1.5,0.3-2.2,0.5-2.8c0.3-0.7,0.6-1.2,1.1-1.7
	c0.5-0.5,1-0.8,1.7-1.1c0.5-0.2,1.3-0.4,2.8-0.5c1.6-0.1,2-0.1,6-0.1s4.5,0,6,0.1c1.5,0.1,2.2,0.3,2.8,0.5c0.7,0.3,1.2,0.6,1.7,1.1
	c0.5,0.5,0.8,1,1.1,1.7c0.2,0.5,0.4,1.3,0.5,2.8c0.1,1.6,0.1,2,0.1,6s0,4.5-0.1,6c-0.1,1.5-0.3,2.2-0.5,2.8
	c-0.3,0.7-0.6,1.2-1.1,1.7c-0.5,0.5-1,0.8-1.7,1.1c-0.5,0.2-1.3,0.4-2.8,0.5C28.5,36.2,28,36.2,24,36.2z M24,38.9
	c4.1,0,4.6,0,6.1-0.1c1.6-0.1,2.7-0.3,3.6-0.7c1-0.4,1.8-0.9,2.6-1.7c0.8-0.8,1.3-1.7,1.7-2.6c0.4-0.9,0.6-2,0.7-3.6
	c0.1-1.6,0.1-2.1,0.1-6.1s0-4.6-0.1-6.1c-0.1-1.6-0.3-2.7-0.7-3.6c-0.4-1-0.9-1.8-1.7-2.6c-0.8-0.8-1.7-1.3-2.6-1.7
	c-0.9-0.4-2-0.6-3.6-0.7c-1.6-0.1-2.1-0.1-6.1-0.1s-4.6,0-6.1,0.1c-1.6,0.1-2.7,0.3-3.6,0.7c-1,0.4-1.8,0.9-2.6,1.7
	c-0.8,0.8-1.3,1.7-1.7,2.6c-0.4,0.9-0.6,2-0.7,3.6c-0.1,1.6-0.1,2.1-0.1,6.1s0,4.6,0.1,6.1c0.1,1.6,0.3,2.7,0.7,3.6
	c0.4,1,0.9,1.8,1.7,2.6c0.8,0.8,1.7,1.3,2.6,1.7c0.9,0.4,2,0.6,3.6,0.7C19.4,38.9,19.9,38.9,24,38.9z M24,0c13.2,0,24,10.8,24,24
	S37.2,48,24,48S0,37.2,0,24S10.8,0,24,0z"/>
</svg>
