<?xml version="1.0" encoding="utf-8"?>
<!-- Generator: Adobe Illustrator 21.0.2, SVG Export Plug-In . SVG Version: 6.00 Build 0)  -->
<svg version="1.1" id="Vrstva_1" xmlns="http://www.w3.org/2000/svg" xmlns:xlink="http://www.w3.org/1999/xlink" x="0px" y="0px"
	 viewBox="0 0 48 48" style="enable-background:new 0 0 48 48;" xml:space="preserve">
<style type="text/css">
	.st0{fill:#B1B1B1;}
</style>
<path class="st0" d="M24,0C10.7,0,0,10.7,0,24c0,13.3,10.7,24,24,24c13.3,0,24-10.7,24-24C48,10.7,37.3,0,24,0z M29.1,24h-3.4
	c0,5.4,0,12,0,12h-5c0,0,0-6.6,0-12h-2.4v-4.2h2.4V17c0-2,0.9-5,5-5l3.7,0v4.1c0,0-2.2,0-2.7,0c-0.4,0-1.1,0.2-1.1,1.2v2.5h3.8
	L29.1,24z"/>
</svg>
